<?xml version="1.0" standalone="no"?><!DOCTYPE svg PUBLIC "-//W3C//DTD SVG 1.1//EN" "http://www.w3.org/Graphics/SVG/1.1/DTD/svg11.dtd"><svg t="1660552677535" class="icon" viewBox="0 0 1024 1024" version="1.1" xmlns="http://www.w3.org/2000/svg" p-id="3578" width="1024" height="1024" xmlns:xlink="http://www.w3.org/1999/xlink"><defs><style type="text/css">@font-face { font-family: feedback-iconfont; src: url("//at.alicdn.com/t/font_1031158_u69w8yhxdu.woff2?t=1630033759944") format("woff2"), url("//at.alicdn.com/t/font_1031158_u69w8yhxdu.woff?t=1630033759944") format("woff"), url("//at.alicdn.com/t/font_1031158_u69w8yhxdu.ttf?t=1630033759944") format("truetype"); }
</style></defs><path d="M906.9 561.47c-22.08-36.79-7.36-80.94 29.43-103.02l-39.25-66.23c-12.26 7.36-24.53 9.81-39.25 9.81-41.7 0-78.49-34.34-78.49-76.04H698.4c0 12.26-2.45 26.98-9.81 36.79-22.08 36.79-68.68 46.6-105.47 26.98L543.88 456c12.26 7.36 22.08 14.72 29.43 26.98 22.08 36.79 7.36 80.94-29.43 103.02l39.25 66.23c12.26-7.36 24.53-9.81 39.25-9.81 41.7 0 76.04 34.34 78.49 73.58h78.49c0-12.26 2.45-24.53 9.81-36.79 22.08-36.79 68.68-46.6 105.47-26.98L933.88 586c-9.81-2.45-22.08-12.26-26.98-24.53z m-169.25 41.82c-46.57 0-83.33-36.77-83.33-78.43s36.77-78.43 83.33-78.43c46.57 0 83.33 36.77 83.33 78.43 0.01 41.66-36.76 78.43-83.33 78.43z" fill="#ffffff" p-id="3579"></path><path d="M724.17 928H172.83C130.47 928 96 893.53 96 851.17V172.83C96 130.47 130.47 96 172.83 96h551.33c42.37 0 76.83 34.47 76.83 76.83V255h-64v-82.17c0-7.08-5.76-12.83-12.83-12.83H172.83c-7.08 0-12.83 5.76-12.83 12.83v678.33c0 7.08 5.76 12.83 12.83 12.83h551.33c7.08 0 12.83-5.76 12.83-12.83V769h64v82.17C801 893.53 766.53 928 724.17 928z" fill="#ffffff" p-id="3580"></path><path d="M260.82 319.5h257v64h-257zM258.96 451.85h257v64h-257zM258.96 575.29h257v64h-257zM258.96 703.8h257v64h-257z" fill="#ffffff" p-id="3581"></path></svg>