<?xml version="1.0" standalone="no"?><!DOCTYPE svg PUBLIC "-//W3C//DTD SVG 1.1//EN" "http://www.w3.org/Graphics/SVG/1.1/DTD/svg11.dtd"><svg t="1660553150335" class="icon" viewBox="0 0 1024 1024" version="1.1" xmlns="http://www.w3.org/2000/svg" p-id="9930" width="1024" height="1024" xmlns:xlink="http://www.w3.org/1999/xlink"><defs><style type="text/css">@font-face { font-family: feedback-iconfont; src: url("//at.alicdn.com/t/font_1031158_u69w8yhxdu.woff2?t=1630033759944") format("woff2"), url("//at.alicdn.com/t/font_1031158_u69w8yhxdu.woff?t=1630033759944") format("woff"), url("//at.alicdn.com/t/font_1031158_u69w8yhxdu.ttf?t=1630033759944") format("truetype"); }
</style></defs><path d="M729.6 883.2H445.952v-51.2H729.6c56.4608 0 102.4-45.9392 102.4-102.4V530.944h51.2V729.6c0 84.6976-68.9024 153.6-153.6 153.6zM192 470.656h-51.2V294.4c0-84.6976 68.9024-153.6 153.6-153.6h198.656v51.2H294.4c-56.4608 0-102.4 45.9392-102.4 102.4v176.256z" fill="#ffffff" p-id="9931"></path><path d="M268.8 960C120.576 960 0 839.4112 0 691.2s120.576-268.8 268.8-268.8 268.8 120.5888 268.8 268.8-120.576 268.8-268.8 268.8z m0-486.4c-119.9872 0-217.6 97.6128-217.6 217.6s97.6128 217.6 217.6 217.6 217.6-97.6128 217.6-217.6-97.6128-217.6-217.6-217.6z" fill="#ffffff" p-id="9932"></path><path d="M268.8 832c-77.632 0-140.8-63.168-140.8-140.8s63.168-140.8 140.8-140.8 140.8 63.168 140.8 140.8-63.168 140.8-140.8 140.8z m0-230.4c-49.408 0-89.6 40.2048-89.6 89.6s40.192 89.6 89.6 89.6 89.6-40.2048 89.6-89.6-40.192-89.6-89.6-89.6zM25.6 1024a25.6 25.6 0 0 1-18.0992-43.6992l106.24-106.24a25.6 25.6 0 1 1 36.1984 36.1984l-106.24 106.24A25.472 25.472 0 0 1 25.6 1024zM512 1024a25.472 25.472 0 0 1-18.0992-7.5008l-106.24-106.24a25.6 25.6 0 1 1 36.1984-36.1984l106.24 106.24A25.6 25.6 0 0 1 512 1024zM729.6 588.8c-162.3424 0-294.4-132.0704-294.4-294.4S567.2576 0 729.6 0s294.4 132.0704 294.4 294.4-132.0576 294.4-294.4 294.4z m0-537.6c-134.1056 0-243.2 109.0944-243.2 243.2s109.0944 243.2 243.2 243.2 243.2-109.0944 243.2-243.2S863.7056 51.2 729.6 51.2z" fill="#ffffff" p-id="9933"></path><path d="M919.68 510.08a25.4976 25.4976 0 0 1-18.0992-7.5008l-380.1472-380.16a25.6 25.6 0 1 1 36.1984-36.1984l380.1472 380.16a25.6 25.6 0 0 1-18.0992 43.6992z" fill="#ffffff" p-id="9934"></path></svg>